<?xml version="1.0" encoding="utf-8"?>
<!-- Generator: Adobe Illustrator 22.0.1, SVG Export Plug-In . SVG Version: 6.00 Build 0)  -->
<svg version="1.1" id="Layer_1" xmlns="http://www.w3.org/2000/svg" xmlns:xlink="http://www.w3.org/1999/xlink" x="0px" y="0px"
	 viewBox="0 0 670.5 164.9" style="enable-background:new 0 0 670.5 164.9;" xml:space="preserve">
<style type="text/css">
	.st0{fill:#FAA71B;}
</style>
<g>
	<g>
		<path d="M32,26.5v81.7c0,7.5,0.8,11.5,2.5,11.9c2.8,0.7,5.6,1.1,8.5,1.1l7.7,0.1v4.1H0.1v-4.1l7.7-0.1c2.9,0,5.8-0.4,8.5-1.1
			c1.7-0.4,2.5-4.4,2.5-11.9V45.8c0-4.2-0.2-7.1-0.7-8.9c-0.5-1.7-1.3-2.6-2.5-2.6c-1.4,0-4.4,0.4-9.1,1.3l-6.6,1.2v-4L32,26.5z"/>
		<path d="M74.6,123.4v-18.9h7l0.1,1.2c0.1,2.2,0.2,3.9,0.2,5c0,3.5,1.4,6.1,4.3,7.9c4.7,2.9,9.8,4.4,15.5,4.4
			c5.9,0,10.5-1.7,13.8-5c3.3-3.3,5-7.9,5-13.8c0-4.9-1.1-8.9-3.2-11.8c-2.1-2.9-6.2-6.1-12.4-9.5l-7-4c-15-8.5-22.5-17.7-22.5-27.8
			c0-7.5,2.7-13.8,8.1-18.7s12.2-7.4,20.4-7.4c3.5,0,7.4,0.3,11.5,1c4.1,0.7,8.6,1.7,13.3,3.1v17.4h-7.4l-0.1-1.1
			c-0.1-2.4-0.2-4.1-0.2-5.2c0-3.7-1.3-6.4-4-8.2c-2.7-1.7-6.8-2.6-12.5-2.6c-4.7,0-8.6,1.6-11.5,4.7c-2.9,3.1-4.4,7.2-4.4,12.3
			c0,4.3,1,7.9,3,10.7c2,2.8,5.7,5.7,11,8.7l7,4c9.6,5.5,16.1,10.2,19.5,14.3c3.4,4.1,5,9.2,5,15.3c0,8.2-3,15-9.1,20.4
			c-6.1,5.4-13.7,8.1-22.8,8.1c-5.3,0-10.3-0.4-14.9-1.1C82.7,126,78.5,124.9,74.6,123.4z"/>
		<path d="M178.2,32.7h-15.6c-3.7,0-6.9,0.2-9.6,0.6c-1.8,0.3-2.7,1.9-2.7,4.9c0,2.3,0,4.2-0.1,5.8l-0.1,1.3h-7V27.4h84.1v17.9h-7
			l-0.1-1.3c-0.1-1.6-0.2-3.6-0.2-5.8c0-3-0.9-4.6-2.6-4.9c-2.8-0.4-6-0.6-9.6-0.6h-15.6v75.6c0,5.9,0.5,9.4,1.6,10.7
			c1.1,1.3,4.2,2,9.5,2.3l2.9,0.1v4.1h-41.7v-4.1l2.8-0.1c5.3-0.3,8.4-1,9.4-2.3c1-1.3,1.6-4.8,1.6-10.7V32.7z"/>
		<path d="M336.7,31.5v-4.1h38.6v4.1l-1.2,0.1c-5.4,0.4-8.6,1.1-9.6,2.2c-1,1.1-1.5,4.7-1.5,10.7v41.9c0,10.1,0.3,16.7,0.8,19.8
			c0.5,3.1,1.9,6,4,8.8c4.3,5.6,10.7,8.3,19.2,8.3c8,0,14.4-2.4,19.2-7.3c2.7-2.7,4.4-5.8,5.3-9.1c0.8-3.3,1.2-9.2,1.2-17.7V44.5
			c0-6-0.5-9.5-1.5-10.7c-1-1.1-4.2-1.9-9.6-2.2l-1.2-0.1v-4.1h31.4v4.1l-1.3,0.1c-5.4,0.4-8.6,1.1-9.6,2.2c-1,1.1-1.4,4.7-1.4,10.7
			v41.1c0,9.1-0.5,15.8-1.5,20c-1,4.2-3,8.2-6.1,11.9c-5.7,6.9-14.6,10.4-26.6,10.4c-24.3,0-36.4-13-36.4-39.1V44.5
			c0-6-0.5-9.5-1.5-10.7c-1-1.1-4.2-1.9-9.5-2.2L336.7,31.5z"/>
		<path d="M506.6,125.4h-70.7v-4.1l1.3-0.1c5.3-0.4,8.5-1.1,9.5-2.3c1-1.2,1.5-4.7,1.5-10.7V44.5c0-6-0.5-9.5-1.5-10.7
			c-1-1.1-4.2-1.9-9.5-2.2l-1.3-0.1v-4.1h67v17.2h-7.4l-0.1-1.3c-0.4-6.1-0.8-9.4-1.4-9.9c-0.6-0.5-4.1-0.7-10.6-0.7h-21.4v39.2
			l18-0.1c4,0,6.4-0.2,7.3-0.6c0.9-0.4,1.4-2.5,1.6-6.3l0.1-1.2h5.3v21.5h-5.3l-0.1-1.2c-0.2-3.3-0.7-5.3-1.6-5.9
			c-0.9-0.6-3.3-1-7.3-1h-18v31.1c0,5.1,0.6,8.3,1.8,9.6c1.2,1.3,4.4,1.9,9.4,1.9h10.5c7.8,0,12.2-0.4,13.3-1.2s1.8-4.1,2.1-9.9
			l0.1-1.2h7.4V125.4z"/>
		<path d="M517.8,123.4v-18.9h7l0.1,1.2c0.1,2.2,0.2,3.9,0.2,5c0,3.5,1.4,6.1,4.3,7.9c4.7,2.9,9.8,4.4,15.5,4.4
			c5.9,0,10.5-1.7,13.8-5c3.3-3.3,5-7.9,5-13.8c0-4.9-1.1-8.9-3.2-11.8c-2.1-2.9-6.2-6.1-12.4-9.5l-7-4c-15-8.5-22.5-17.7-22.5-27.8
			c0-7.5,2.7-13.8,8.1-18.7c5.4-4.9,12.2-7.4,20.4-7.4c3.5,0,7.4,0.3,11.5,1c4.1,0.7,8.6,1.7,13.3,3.1v17.4h-7.4l-0.1-1.1
			c-0.1-2.4-0.2-4.1-0.2-5.2c0-3.7-1.3-6.4-4-8.2c-2.7-1.7-6.8-2.6-12.5-2.6c-4.7,0-8.6,1.6-11.5,4.7c-2.9,3.1-4.4,7.2-4.4,12.3
			c0,4.3,1,7.9,3,10.7c2,2.8,5.7,5.7,11,8.7l7,4c9.6,5.5,16.1,10.2,19.5,14.3c3.4,4.1,5,9.2,5,15.3c0,8.2-3,15-9.1,20.4
			s-13.7,8.1-22.8,8.1c-5.3,0-10.3-0.4-14.9-1.1C526,126,521.7,124.9,517.8,123.4z"/>
		<path d="M621.4,32.7h-15.6c-3.7,0-6.9,0.2-9.6,0.6c-1.8,0.3-2.7,1.9-2.7,4.9c0,2.3,0,4.2-0.1,5.8l-0.1,1.3h-7V27.4h84.1v17.9h-7
			l-0.1-1.3c-0.1-1.6-0.2-3.6-0.2-5.8c0-3-0.9-4.6-2.6-4.9c-2.8-0.4-6-0.6-9.6-0.6h-15.6v75.6c0,5.9,0.5,9.4,1.6,10.7
			c1.1,1.3,4.2,2,9.5,2.3l2.9,0.1v4.1h-41.7v-4.1l2.8-0.1c5.3-0.3,8.4-1,9.4-2.3c1-1.3,1.6-4.8,1.6-10.7V32.7z"/>
	</g>
	<g>
		<path class="st0" d="M280.2,131.3c1.2,0.1,2.5,0.1,3.7,0.1L280.2,131.3z M294.3,66.7l-37.1-16.4l16.4,37.1l37.1,16.4L294.3,66.7z
			 M273.4,78.7l-10.4-22.5l22.5,10.4L273.4,78.7z"/>
		<path class="st0" d="M411.8,141.2c-42.3,28.5-73.9-6.2-113.1-11.9c22.2-6.5,38.4-27.4,38.4-52.2c0-26.7-18.8-48.9-43.7-53.5
			c-0.1,0-0.2,0-0.4-0.1c0.1-0.2,0.2-0.3,0.3-0.5c2.1-3,3.7-5.7,3.7-8.6c0,0,0,0,0-0.1c0-7.9-5.8-14.3-12.8-14.3
			c-7.1,0-12.8,6.4-12.9,14.3c0,0,0,0,0,0.1c0,3.2,1.6,5.5,3.7,8.5c0.1,0.2,0.3,0.3,0.4,0.5c-0.1,0-0.3,0-0.4,0.1
			c-25.1,4.3-44.3,26.6-44.3,53.6c0,28.7,21.8,52.2,49.4,54.2h0l3.7,0.1c0.2,0,0.4,0,0.7,0c16.6,0,40.8,23.1,74.2,31.6
			C399.7,173.5,426.2,131.6,411.8,141.2z M284.3,7.1c2.7,0,4.9,3.5,4.9,7.9c0,3.4-1.3,6.2-3.1,7.3c-0.5,0.3-1.1,0.5-1.8,0.5
			c-0.6,0-1.3-0.2-1.8-0.5c-1.9-1.1-3.1-4-3.1-7.3C279.3,10.6,281.5,7.1,284.3,7.1z M284,125.1c-21.7,0-39.5-19.5-41.1-44.4l11.4-4
			l-11.4-4c1.7-22.6,17-40.7,36.3-43.3c0.1,0,0.2,0,0.3,0c1.4,2.4,2.7,5.2,3.8,8.8c0.3,0.8,1.4,0.8,1.7,0c1-3.3,2.5-6.2,4.1-8.7
			c0.1,0,0.2,0,0.3,0c19,2.9,33.9,20.9,35.6,43.3l-11.4,4l11.4,4v0C323.4,105.6,305.7,125.1,284,125.1z"/>
	</g>
</g>
<g>
</g>
<g>
</g>
<g>
</g>
<g>
</g>
<g>
</g>
<g>
</g>
</svg>
